HIERARCHY
ROOT hip
{
  OFFSET 0 0 0
  CHANNELS 6 Xposition Yposition Zposition Zrotation Yrotation Xrotation
  JOINT abdomen
  {
    OFFSET 0 20.6881 -0.73152
    CHANNELS 3 Zrotation Xrotation Yrotation
    JOINT chest
    {
      OFFSET 0 11.7043 -0.48768
      CHANNELS 3 Zrotation Xrotation Yrotation
      JOINT neck
      {
        OFFSET 0 22.1894 -2.19456
        CHANNELS 3 Zrotation Xrotation Yrotation
        JOINT head
        {
          OFFSET -0.24384 7.07133 1.2192
          CHANNELS 3 Zrotation Xrotation Yrotation
          JOINT leftEye
          {
            OFFSET 4.14528 8.04674 8.04672
            CHANNELS 3 Zrotation Xrotation Yrotation
            End Site
            {
              OFFSET 1 0 0
            }
          }
          JOINT rightEye
          {
            OFFSET -3.6576 8.04674 8.04672
            CHANNELS 3 Zrotation Xrotation Yrotation
            End Site
            {
              OFFSET 1 0 0
            }
          }
        }
      }
      JOINT rCollar
      {
        OFFSET -2.68224 19.2634 -4.8768
        CHANNELS 3 Zrotation Xrotation Yrotation
        JOINT rShldr
        {
          OFFSET -8.77824 -1.95073 1.46304
          CHANNELS 3 Zrotation Xrotation Yrotation
          JOINT rForeArm
          {
            OFFSET -28.1742 -1.7115 0.48768
            CHANNELS 3 Zrotation Xrotation Yrotation
            JOINT rHand
            {
              OFFSET -22.5879 0.773209 7.07136
              CHANNELS 3 Zrotation Xrotation Yrotation
              JOINT rThumb1
              {
                OFFSET -1.2192 -0.487915 3.41376
                CHANNELS 3 Zrotation Xrotation Yrotation
                JOINT rThumb2
                {
                  OFFSET -3.37035 -0.52449 3.41376
                  CHANNELS 3 Zrotation Xrotation Yrotation
                  End Site
                  {
                    OFFSET -1.78271 -1.18214 1.43049
                  }
                }
              }
              JOINT rIndex1
              {
                OFFSET -7.75947 0.938293 5.60832
                CHANNELS 3 Zrotation Xrotation Yrotation
                JOINT rIndex2
                {
                  OFFSET -2.54057 -0.884171 1.56538
                  CHANNELS 3 Zrotation Xrotation Yrotation
                  End Site
                  {
                    OFFSET -1.62519 -0.234802 1.16502
                  }
                }
              }
              JOINT rMid1
              {
                OFFSET -8.24714 1.18213 3.41376
                CHANNELS 3 Zrotation Xrotation Yrotation
                JOINT rMid2
                {
                  OFFSET -3.10165 -0.590103 1.0647
                  CHANNELS 3 Zrotation Xrotation Yrotation
                  End Site
                  {
                    OFFSET -2.48547 -0.328903 0.83742
                  }
                }
              }
              JOINT rRing1
              {
                OFFSET -8.82822 0.546677 1.51678
                CHANNELS 3 Zrotation Xrotation Yrotation
                JOINT rRing2
                {
                  OFFSET -2.60934 -0.819778 -0.0198488
                  CHANNELS 3 Zrotation Xrotation Yrotation
                  End Site
                  {
                    OFFSET -2.33842 -0.294052 0.168128
                  }
                }
              }
              JOINT rPinky1
              {
                OFFSET -8.27202 -0.0477905 -0.4584
                CHANNELS 3 Zrotation Xrotation Yrotation
                JOINT rPinky2
                {
                  OFFSET -1.82734 -0.647385 -0.700984
                  CHANNELS 3 Zrotation Xrotation Yrotation
                  End Site
                  {
                    OFFSET -1.69225 -0.51767 -0.607171
                  }
                }
              }
            }
          }
        }
      }
      JOINT lCollar
      {
        OFFSET 2.68224 19.2634 -4.8768
        CHANNELS 3 Zrotation Xrotation Yrotation
        JOINT lShldr
        {
          OFFSET 8.77824 -1.95073 1.46304
          CHANNELS 3 Zrotation Xrotation Yrotation
          JOINT lForeArm
          {
            OFFSET 28.1742 -1.7115 0.48768
            CHANNELS 3 Zrotation Xrotation Yrotation
            JOINT lHand
            {
              OFFSET 22.5879 0.773209 7.07136
              CHANNELS 3 Zrotation Xrotation Yrotation
              JOINT lThumb1
              {
                OFFSET 1.2192 -0.487915 3.41376
                CHANNELS 3 Zrotation Xrotation Yrotation
                JOINT lThumb2
                {
                  OFFSET 3.37035 -0.52449 3.41376
                  CHANNELS 3 Zrotation Xrotation Yrotation
                  End Site
                  {
                    OFFSET 1.78271 -1.18214 1.43049
                  }
                }
              }
              JOINT lIndex1
              {
                OFFSET 7.75947 0.938293 5.60832
                CHANNELS 3 Zrotation Xrotation Yrotation
                JOINT lIndex2
                {
                  OFFSET 2.54057 -0.884171 1.56538
                  CHANNELS 3 Zrotation Xrotation Yrotation
                  End Site
                  {
                    OFFSET 1.62519 -0.234802 1.16502
                  }
                }
              }
              JOINT lMid1
              {
                OFFSET 8.24714 1.18213 3.41376
                CHANNELS 3 Zrotation Xrotation Yrotation
                JOINT lMid2
                {
                  OFFSET 3.10165 -0.590103 1.0647
                  CHANNELS 3 Zrotation Xrotation Yrotation
                  End Site
                  {
                    OFFSET 2.48547 -0.328903 0.83742
                  }
                }
              }
              JOINT lRing1
              {
                OFFSET 8.82822 0.546677 1.51678
                CHANNELS 3 Zrotation Xrotation Yrotation
                JOINT lRing2
                {
                  OFFSET 2.60934 -0.819778 -0.0198488
                  CHANNELS 3 Zrotation Xrotation Yrotation
                  End Site
                  {
                    OFFSET 2.33842 -0.294052 0.168128
                  }
                }
              }
              JOINT lPinky1
              {
                OFFSET 8.27202 -0.0477905 -0.4584
                CHANNELS 3 Zrotation Xrotation Yrotation
                JOINT lPinky2
                {
                  OFFSET 1.82734 -0.647385 -0.700984
                  CHANNELS 3 Zrotation Xrotation Yrotation
                  End Site
                  {
                    OFFSET 1.69225 -0.51767 -0.607171
                  }
                }
              }
            }
          }
        }
      }
    }
  }
  JOINT rButtock
  {
    OFFSET -8.77824 4.35084 1.2192
    CHANNELS 3 Zrotation Xrotation Yrotation
    JOINT rThigh
    {
      OFFSET 0 -1.70687 -2.19456
      CHANNELS 3 Zrotation Xrotation Yrotation
      JOINT rShin
      {
        OFFSET 0 -36.8199 0.73152
        CHANNELS 3 Zrotation Xrotation Yrotation
        JOINT rFoot
        {
          OFFSET 0.73152 -45.1104 -5.12064
          CHANNELS 3 Zrotation Xrotation Yrotation
          End Site
          {
            OFFSET -1.1221 -3.69964 12.103
          }
        }
      }
    }
  }
  JOINT lButtock
  {
    OFFSET 8.77824 4.35084 1.2192
    CHANNELS 3 Zrotation Xrotation Yrotation
    JOINT lThigh
    {
      OFFSET 0 -1.70687 -2.19456
      CHANNELS 3 Zrotation Xrotation Yrotation
      JOINT lShin
      {
        OFFSET 0 -36.8199 0.73152
        CHANNELS 3 Zrotation Xrotation Yrotation
        JOINT lFoot
        {
          OFFSET -0.73152 -45.1104 -5.12064
          CHANNELS 3 Zrotation Xrotation Yrotation
          End Site
          {
            OFFSET 1.1221 -3.69964 12.103
          }
        }
      }
    }
  }
}
MOTION
Frames:	6
Frame Time:	0.00833333
-43.6128 88.1309 -160.514 -186.326 103.103 -169.385 -1.80278 -10.9785 -6.34644 1.17158 -8.25993 -1.49926 -12.636 43.5014 -21.751 57.4215 -45.6152 -24.9332 -0.0 0.0 0.0 -0.0 0.0 0.0 5.8796e-14 -2.04834e-13 -4.30036e-13 74.9136 54.5759 -3.19437 -25.7213 -22.7395 55.6405 -1.80764 -35.2216 -5.6935 2.592e-09 -8.5263e-10 2.3062e-09 4.40465e-09 -1.4882e-09 4.04339e-09 2.59201e-09 -8.52621e-10 2.30614e-09 7.73091 5.47488 0.417314 2.592e-09 -8.52629e-10 2.3062e-09 2.90554 0.965183 0.102902 2.59201e-09 -8.52629e-10 2.3062e-09 10.2786 0.731801 0.0259123 2.59199e-09 -8.5263e-10 2.30621e-09 2.22167 -0.733487 -0.20892 5.87199e-14 -2.04827e-13 -4.30191e-13 -78.8023 38.5641 27.7556 16.5129 -9.16939 -30.7788 5.12818 -52.2118 10.4434 2.30509e-10 4.3269e-10 9.62262e-10 3.63764e-10 7.75101e-10 1.66882e-09 2.30503e-10 4.32691e-10 9.62268e-10 -7.73091 5.47488 -0.417314 2.30511e-10 4.32691e-10 9.62259e-10 -2.90554 0.965183 -0.102902 2.30504e-10 4.3269e-10 9.62262e-10 -10.2786 0.731801 -0.0259123 2.30511e-10 4.3269e-10 9.62256e-10 -2.22167 -0.733487 0.20892 -2.03217e-16 0.0 -3.88251e-19 14.8895 -35.0887 28.0631 -0.32885 39.3886 0.591405 6.25027 -12.8019 21.0774 2.03217e-16 0.0 3.88251e-19 3.60709 -26.0538 10.5001 0.199886 32.4816 -0.598368 3.66613 -14.707 9.29397
-43.636 88.173 -160.476 -185.957 105.482 -169.134 -1.92956 -11.033 -5.50839 0.894276 -8.3247 -1.2748 -11.7265 44.0766 -22.1778 56.861 -45.9288 -25.4479 -0.0 0.0 0.0 -0.0 0.0 0.0 3.50032e-14 -2.04952e-13 -5.1515e-13 75.8305 54.9616 -3.10211 -25.7318 -22.7651 55.6811 -1.69891 -34.3001 -5.50144 2.53075e-09 -9.33519e-10 2.27127e-09 4.30071e-09 -1.62885e-09 3.98215e-09 2.53076e-09 -9.33509e-10 2.27121e-09 7.73091 5.47488 0.417314 2.53075e-09 -9.33518e-10 2.27127e-09 2.90554 0.965183 0.102902 2.53076e-09 -9.33518e-10 2.27127e-09 10.2786 0.731801 0.0259123 2.53074e-09 -9.33519e-10 2.27129e-09 2.22167 -0.733487 -0.20892 3.49215e-14 -2.04943e-13 -5.153e-13 -79.3967 39.5279 28.8926 17.2099 -9.86175 -32.271 5.56499 -53.6037 10.9908 3.8313e-11 3.84873e-10 7.30424e-10 4.26425e-11 6.89767e-10 1.26089e-09 3.83066e-11 3.84873e-10 7.30433e-10 -7.73091 5.47488 -0.417314 3.83146e-11 3.84874e-10 7.30418e-10 -2.90554 0.965183 -0.102902 3.83072e-11 3.84873e-10 7.30425e-10 -10.2786 0.731801 -0.0259123 3.83157e-11 3.84873e-10 7.30418e-10 -2.22167 -0.733487 0.20892 -2.03217e-16 0.0 -3.88251e-19 14.7889 -35.0218 27.1645 -0.325137 39.1934 0.583395 6.29903 -12.5405 21.5355 2.03217e-16 0.0 3.88251e-19 3.51607 -25.7414 9.26827 0.202605 32.6385 -0.599998 3.55257 -14.6174 9.00667
-43.6624 88.2083 -160.462 -185.538 107.808 -168.837 -2.00987 -11.0416 -5.04295 0.839214 -8.39594 -1.14435 -11.5733 44.3787 -22.2635 56.4322 -45.8899 -25.7851 -0.0 0.0 0.0 -0.0 0.0 0.0 -3.87556e-14 -1.67293e-13 -6.24513e-13 76.2281 55.8845 -2.67775 -25.7539 -22.819 55.7689 -1.61335 -33.5545 -5.34846 1.6762e-09 -7.09748e-10 1.46617e-09 2.84982e-09 -1.23721e-09 2.57483e-09 1.67621e-09 -7.0974e-10 1.46612e-09 7.73091 5.47488 0.417314 1.6762e-09 -7.09747e-10 1.46617e-09 2.90554 0.965183 0.102902 1.67621e-09 -7.09747e-10 1.46617e-09 10.2786 0.731801 0.0259123 1.6762e-09 -7.09747e-10 1.46618e-09 2.22167 -0.733487 -0.20892 -3.88336e-14 -1.67285e-13 -6.24695e-13 -80.2829 39.747 30.0244 17.9289 -10.6187 -33.8351 6.07297 -55.0975 11.6174 -3.70036e-10 2.07331e-10 -1.40676e-10 -6.22862e-10 3.66789e-10 -2.59545e-10 -3.70042e-10 2.07332e-10 -1.40665e-10 -7.73091 5.47488 -0.417314 -3.70034e-10 2.07331e-10 -1.40685e-10 -2.90554 0.965183 -0.102902 -3.70042e-10 2.07332e-10 -1.40675e-10 -10.2786 0.731801 -0.0259123 -3.70032e-10 2.07333e-10 -1.40682e-10 -2.22167 -0.733487 0.20892 -2.03217e-16 0.0 -3.88251e-19 14.531 -34.9946 26.1353 -0.321948 39.0169 0.575138 6.40761 -12.3177 22.1388 2.03217e-16 0.0 3.88251e-19 3.3769 -25.4156 7.98422 0.205168 32.7745 -0.599934 3.34008 -14.5819 8.4134
-43.6903 88.2304 -160.465 -185.051 110.087 -168.472 -2.05924 -11.0127 -4.786 0.913555 -8.47863 -1.06626 -11.8927 44.5159 -22.1332 56.0954 -45.6354 -26.005 -0.0 0.0 0.0 -0.0 0.0 0.0 -1.47522e-13 -1.07564e-13 -7.53503e-13 76.3167 57.1558 -2.03943 -25.7829 -22.8899 55.8857 -1.53034 -32.8072 -5.19756 2.66726e-10 -2.87591e-10 1.44707e-10 4.56204e-10 -4.98838e-10 2.64516e-10 2.66734e-10 -2.87587e-10 1.44677e-10 7.73091 5.47488 0.417314 2.66726e-10 -2.87591e-10 1.44706e-10 2.90554 0.965183 0.102902 2.66732e-10 -2.87591e-10 1.44706e-10 10.2786 0.731801 0.0259123 2.66719e-10 -2.8759e-10 1.44717e-10 2.22167 -0.733487 -0.20892 -1.4759e-13 -1.07558e-13 -7.53745e-13 -81.323 39.4782 31.125 18.6572 -11.4208 -35.4865 6.67049 -56.6864 12.3403 -9.51293e-10 -6.70218e-11 -1.46705e-09 -1.56644e-09 -1.3291e-10 -2.57301e-09 -9.51298e-10 -6.7022e-11 -1.46704e-09 -7.73091 5.47488 -0.417314 -9.5129e-10 -6.70231e-11 -1.46706e-09 -2.90554 0.965183 -0.102902 -9.51298e-10 -6.70204e-11 -1.46705e-09 -10.2786 0.731801 -0.0259123 -9.51286e-10 -6.70175e-11 -1.46706e-09 -2.22167 -0.733487 0.20892 -2.03217e-16 0.0 -3.88251e-19 14.1622 -34.9809 25.0166 -0.319005 38.8442 0.566189 6.56636 -12.1108 22.8863 2.03217e-16 0.0 3.88251e-19 3.21167 -25.0619 6.60997 0.207697 32.8994 -0.598553 3.04187 -14.5994 7.5524
-43.7234 88.2476 -160.481 -184.531 112.344 -168.051 -2.12923 -10.995 -4.57842 1.05601 -8.54922 -0.997008 -12.4029 44.5457 -21.9212 55.7789 -45.2901 -26.1927 -0.0 0.0 0.0 -0.0 0.0 0.0 -2.53888e-13 -1.24913e-14 -8.51577e-13 76.297 58.5297 -1.32143 -25.8205 -22.9824 56.0365 -1.46054 -32.1519 -5.06758 -9.92601e-10 7.79959e-11 -1.08127e-09 -1.68128e-09 1.40174e-10 -1.87749e-09 -9.92595e-10 7.79955e-11 -1.08128e-09 7.73091 5.47488 0.417314 -9.92602e-10 7.79952e-11 -1.08127e-09 2.90554 0.965183 0.102902 -9.92596e-10 7.79957e-11 -1.08127e-09 10.2786 0.731801 0.0259123 -9.92607e-10 7.79983e-11 -1.08126e-09 2.22167 -0.733487 -0.20892 -2.53948e-13 -1.24884e-14 -8.51882e-13 -82.3726 38.9729 32.125 19.366 -12.2399 -37.1535 7.30546 -58.1966 13.0932 -1.47286e-09 -3.32072e-10 -2.69972e-09 -2.41144e-09 -6.11991e-10 -4.72194e-09 -1.47286e-09 -3.32073e-10 -2.69971e-09 -7.73091 5.47488 -0.417314 -1.47285e-09 -3.32075e-10 -2.69973e-09 -2.90554 0.965183 -0.102902 -1.47286e-09 -3.3207e-10 -2.69972e-09 -10.2786 0.731801 -0.0259123 -1.47285e-09 -3.32066e-10 -2.69972e-09 -2.22167 -0.733487 0.20892 -2.03217e-16 0.0 -3.88251e-19 13.7604 -34.9848 23.9187 -0.316361 38.6804 0.557105 6.74911 -11.9686 23.6369 2.03217e-16 0.0 3.88251e-19 3.04555 -24.7069 5.26569 0.209994 33.0042 -0.59616 2.69222 -14.6631 6.52979
-43.7513 88.2591 -160.504 -183.946 114.599 -167.541 -2.27068 -11.0365 -4.26095 1.20539 -8.58414 -0.893072 -12.8203 44.5258 -21.7633 55.4103 -44.9777 -26.4336 -0.0 0.0 0.0 -0.0 0.0 0.0 -3.20446e-13 1.31198e-13 -8.68192e-13 76.4132 59.7634 -0.693349 -25.8682 -23.1012 56.2261 -1.41275 -31.6821 -4.97604 -1.39669e-09 1.32058e-10 -1.5999e-09 -2.36377e-09 2.33714e-10 -2.77991e-09 -1.39669e-09 1.32055e-10 -1.5999e-09 7.73091 5.47488 0.417314 -1.39669e-09 1.32057e-10 -1.59991e-09 2.90554 0.965183 0.102902 -1.39669e-09 1.32057e-10 -1.59991e-09 10.2786 0.731801 0.0259123 -1.3967e-09 1.32061e-10 -1.5999e-09 2.22167 -0.733487 -0.20892 -3.20507e-13 1.31198e-13 -8.6854e-13 -83.3126 38.4786 32.9722 20.0341 -13.0546 -38.7626 7.89414 -59.4567 13.7791 -1.70213e-09 -4.81705e-10 -3.2897e-09 -2.7812e-09 -8.73116e-10 -5.74874e-09 -1.70213e-09 -4.81706e-10 -3.28969e-09 -7.73091 5.47488 -0.417314 -1.70212e-09 -4.81708e-10 -3.28971e-09 -2.90554 0.965183 -0.102902 -1.70213e-09 -4.81703e-10 -3.28969e-09 -10.2786 0.731801 -0.0259123 -1.70212e-09 -4.81697e-10 -3.2897e-09 -2.22167 -0.733487 0.20892 -2.03217e-16 0.0 -3.88251e-19 13.4021 -35.0151 22.9514 -0.314057 38.5307 0.548438 6.93323 -11.9397 24.2499 2.03217e-16 0.0 3.88251e-19 2.89721 -24.3822 4.0689 0.211867 33.0795 -0.593065 2.32502 -14.7675 5.4517
